<svg width="583" height="113" viewBox="0 0 583 113" fill="none" xmlns="http://www.w3.org/2000/svg">
<rect x="1" y="1" width="450" height="75" stroke="white" stroke-width="2"/>
<path d="M37.3139 58H27.4276L42.4915 14.3636H54.3807L69.4233 58H59.5369L48.6065 24.3352H48.2656L37.3139 58ZM36.696 40.848H60.0483V48.0497H36.696V40.848ZM90.1442 58H74.6754V14.3636H90.272C94.6612 14.3636 98.4396 15.2372 101.607 16.9844C104.775 18.7173 107.211 21.2102 108.915 24.4631C110.634 27.7159 111.494 31.608 111.494 36.1392C111.494 40.6847 110.634 44.5909 108.915 47.858C107.211 51.125 104.761 53.6321 101.565 55.3793C98.3828 57.1264 94.576 58 90.1442 58ZM83.9013 50.0952H89.7607C92.4879 50.0952 94.782 49.6122 96.6428 48.6463C98.5178 47.6662 99.924 46.1534 100.862 44.108C101.813 42.0483 102.289 39.392 102.289 36.1392C102.289 32.9148 101.813 30.2798 100.862 28.2344C99.924 26.1889 98.5249 24.6832 96.6641 23.7173C94.8033 22.7514 92.5092 22.2685 89.782 22.2685H83.9013V50.0952ZM123.388 58H113.502L128.566 14.3636H140.455L155.498 58H145.611L134.681 24.3352H134.34L123.388 58ZM122.77 40.848H146.123V48.0497H122.77V40.848ZM160.75 14.3636H172.127L184.145 43.6818H184.656L196.673 14.3636H208.051V58H199.102V29.598H198.74L187.447 57.7869H181.353L170.061 29.4915H169.699V58H160.75V14.3636ZM247.01 14.3636H256.13V44.7898C256.13 47.6023 255.498 50.0455 254.233 52.1193C252.983 54.1932 251.243 55.7912 249.013 56.9134C246.783 58.0355 244.191 58.5966 241.236 58.5966C238.608 58.5966 236.222 58.1349 234.077 57.2116C231.946 56.2741 230.256 54.8537 229.006 52.9503C227.756 51.0327 227.138 48.625 227.152 45.7273H236.336C236.364 46.8778 236.598 47.8651 237.039 48.6889C237.493 49.4986 238.111 50.1236 238.892 50.5639C239.688 50.9901 240.625 51.2031 241.705 51.2031C242.841 51.2031 243.8 50.9616 244.581 50.4787C245.377 49.9815 245.98 49.2571 246.392 48.3054C246.804 47.3537 247.01 46.1818 247.01 44.7898V14.3636ZM271.279 58H261.392L276.456 14.3636H288.346L303.388 58H293.502L282.571 24.3352H282.23L271.279 58ZM270.661 40.848H294.013V48.0497H270.661V40.848ZM308.64 14.3636H320.018L332.035 43.6818H332.547L344.564 14.3636H355.941V58H346.993V29.598H346.63L335.338 57.7869H329.244L317.951 29.4915H317.589V58H308.64V14.3636ZM372.768 14.3636V58H363.543V14.3636H372.768ZM407.312 14.3636H416.538V42.7017C416.538 45.8835 415.778 48.6676 414.258 51.054C412.752 53.4403 410.643 55.3011 407.93 56.6364C405.217 57.9574 402.056 58.6179 398.449 58.6179C394.826 58.6179 391.659 57.9574 388.946 56.6364C386.233 55.3011 384.123 53.4403 382.618 51.054C381.112 48.6676 380.359 45.8835 380.359 42.7017V14.3636H389.585V41.9134C389.585 43.5753 389.947 45.0526 390.672 46.3452C391.41 47.6378 392.447 48.6534 393.782 49.392C395.118 50.1307 396.673 50.5 398.449 50.5C400.238 50.5 401.794 50.1307 403.115 49.392C404.45 48.6534 405.48 47.6378 406.204 46.3452C406.943 45.0526 407.312 43.5753 407.312 41.9134V14.3636Z" fill="white"/>
</svg>
