<svg width="82" height="48" viewBox="0 0 82 48" fill="none" xmlns="http://www.w3.org/2000/svg">
<path d="M12.5909 47H0.5L16.2045 0.454544H31.1818L46.8864 47H34.7955L23.8636 12.1818H23.5L12.5909 47ZM10.9773 28.6818H36.25V37.2273H10.9773V28.6818Z" fill="#0000FF"/>
<path d="M70.8068 0.454544H81.8977V32.6364C81.8826 35.6515 81.1629 38.2879 79.7386 40.5455C78.3144 42.7879 76.3447 44.5303 73.8295 45.7727C71.3295 47.0152 68.4356 47.6364 65.1477 47.6364C62.2386 47.6364 59.5947 47.1288 57.2159 46.1136C54.8523 45.0985 52.9659 43.5227 51.5568 41.3864C50.1629 39.25 49.4735 36.5152 49.4886 33.1818H60.6932C60.7386 34.3788 60.9659 35.4015 61.375 36.25C61.7992 37.0833 62.3826 37.7121 63.125 38.1364C63.8674 38.5606 64.7538 38.7727 65.7841 38.7727C66.8598 38.7727 67.7689 38.5455 68.5114 38.0909C69.2538 37.6212 69.8144 36.9318 70.1932 36.0227C70.5871 35.1136 70.7917 33.9848 70.8068 32.6364V0.454544Z" fill="#FF0000"/>
</svg>
